<svg width="97" height="94" viewBox="0 0 97 94" fill="none" xmlns="http://www.w3.org/2000/svg">
<path d="M74.5278 93.4598C73.5936 93.4573 72.6624 93.3559 71.75 93.1573C54.3795 89.6 38.3767 81.2591 25.5833 69.0948C13.063 56.9038 4.37944 41.382 0.583346 24.4073C0.135739 22.2918 0.245599 20.0978 0.902358 18.0364C1.55912 15.9751 2.74067 14.1158 4.33335 12.6373L15.4445 2.04983C16.012 1.51849 16.6863 1.11161 17.4234 0.85573C18.1605 0.59985 18.9438 0.500726 19.7222 0.564828C20.5294 0.648189 21.3082 0.90559 22.0041 1.31893C22.7 1.73227 23.2959 2.29151 23.75 2.95733L37.6389 23.2798C38.1597 24.0684 38.4112 25.0016 38.3562 25.9422C38.3012 26.8828 37.9426 27.7811 37.3333 28.5048L30.3611 36.7548C33.1379 42.8391 37.0704 48.338 41.9445 52.9523C46.787 57.734 52.5107 61.5521 58.8056 64.1998L67.4445 57.4073C68.17 56.8396 69.0529 56.504 69.9758 56.4451C70.8987 56.3861 71.8179 56.6066 72.6111 57.0773L93.5834 70.4973C94.3031 70.9228 94.9162 71.5039 95.3768 72.1972C95.8374 72.8905 96.1336 73.678 96.2432 74.5008C96.3528 75.3235 96.2728 76.1601 96.0094 76.9479C95.746 77.7357 95.306 78.4543 94.7222 79.0498L83.8889 89.6648C82.6583 90.8771 81.1977 91.8365 79.5912 92.4878C77.9846 93.1391 76.2638 93.4695 74.5278 93.4598ZM19.2778 6.00983L8.16668 16.5973C7.27071 17.4238 6.60748 18.467 6.24219 19.6242C5.87691 20.7814 5.82217 22.0128 6.08335 23.1973C9.61313 39.1257 17.727 53.7012 29.4445 65.1623C41.4839 76.6066 56.5434 84.4519 72.8889 87.7948C74.1261 88.0509 75.4082 87.999 76.6202 87.6439C77.8322 87.2887 78.9362 86.6413 79.8334 85.7598L90.6667 75.1448L70.4167 62.1923L61.1389 69.5073C60.7837 69.7856 60.3652 69.9737 59.9198 70.0552C59.4743 70.1367 59.0155 70.1091 58.5834 69.9748C50.8797 67.1649 43.8985 62.7044 38.1389 56.9123C32.1816 51.4047 27.5573 44.6364 24.6111 37.1123C24.4865 36.6568 24.4823 36.1772 24.5991 35.7197C24.7159 35.2622 24.9496 34.8421 25.2778 34.4998L32.7778 25.6173L19.2778 6.00983Z" fill="#2282C7"/>
</svg>
