<svg width="20" height="20" viewBox="0 0 20 20" fill="none" xmlns="http://www.w3.org/2000/svg">
<path d="M6.25 8.125H7.5V9.375H6.25V8.125ZM8.75 8.125H13.75V9.375H8.75V8.125ZM6.25 11.25H7.5V12.5H6.25V11.25ZM6.25 14.375H7.5V15.625H6.25V14.375Z" fill="white"/>
<path d="M4.375 17.5V4.375H6.25V6.25H13.75V4.375H15.625V9.375H16.875V4.375C16.875 4.04348 16.7433 3.72554 16.5089 3.49112C16.2745 3.2567 15.9565 3.125 15.625 3.125H13.75V2.5C13.75 2.16848 13.6183 1.85054 13.3839 1.61612C13.1495 1.3817 12.8315 1.25 12.5 1.25H7.5C7.16848 1.25 6.85054 1.3817 6.61612 1.61612C6.3817 1.85054 6.25 2.16848 6.25 2.5V3.125H4.375C4.04348 3.125 3.72554 3.2567 3.49112 3.49112C3.2567 3.72554 3.125 4.04348 3.125 4.375V17.5C3.125 17.8315 3.2567 18.1495 3.49112 18.3839C3.72554 18.6183 4.04348 18.75 4.375 18.75H10V17.5H4.375ZM7.5 2.5H12.5V5H7.5V2.5Z" fill="white"/>
<path d="M11.25 11.8749V13.383C11.6426 12.7267 12.2004 12.1848 12.8679 11.8114C13.5353 11.438 14.289 11.2462 15.0537 11.2552C15.8185 11.2641 16.5675 11.4735 17.226 11.8624C17.8845 12.2513 18.4295 12.8061 18.8066 13.4715C19.1837 14.1369 19.3797 14.8895 19.375 15.6543C19.3703 16.419 19.165 17.1692 18.7798 17.8299C18.3946 18.4905 17.8428 19.0386 17.1796 19.4194C16.5163 19.8002 15.7648 20.0003 15 19.9999V18.7499C15.5636 18.7506 16.1169 18.5989 16.6013 18.3109C17.0857 18.0229 17.4832 17.6092 17.7517 17.1137C18.0202 16.6181 18.1497 16.0592 18.1265 15.4961C18.1032 14.933 17.9282 14.3867 17.6198 13.915C17.3114 13.4432 16.8812 13.0637 16.3747 12.8165C15.8683 12.5693 15.3044 12.4637 14.7428 12.5108C14.1811 12.558 13.6427 12.7561 13.1845 13.0843C12.7264 13.4124 12.3654 13.8584 12.14 14.3749H13.75V15.6249H10V11.8749H11.25Z" fill="white"/>
</svg>
