<svg width="90" height="66" viewBox="0 0 90 66" fill="none" xmlns="http://www.w3.org/2000/svg">
<path d="M0.5 11C0.5 8.08262 1.6721 5.28473 3.75844 3.22182C5.84478 1.15892 8.67447 0 11.625 0H78.375C81.3255 0 84.1552 1.15892 86.2416 3.22182C88.3279 5.28473 89.5 8.08262 89.5 11V55C89.5 57.9174 88.3279 60.7153 86.2416 62.7782C84.1552 64.8411 81.3255 66 78.375 66H11.625C8.67447 66 5.84478 64.8411 3.75844 62.7782C1.6721 60.7153 0.5 57.9174 0.5 55V11ZM11.625 5.5C10.1497 5.5 8.73489 6.07946 7.69172 7.11091C6.64855 8.14236 6.0625 9.54131 6.0625 11V12.1935L45 35.2935L83.9375 12.1935V11C83.9375 9.54131 83.3514 8.14236 82.3083 7.11091C81.2651 6.07946 79.8503 5.5 78.375 5.5H11.625ZM83.9375 18.6065L57.7492 34.144L83.9375 50.0775V18.6065ZM83.7484 56.4245L52.3759 37.334L45 41.7065L37.6241 37.334L6.25163 56.419C6.56772 57.5894 7.26576 58.6238 8.23738 59.3618C9.209 60.0997 10.3998 60.4998 11.625 60.5H78.375C79.5994 60.5001 80.7897 60.1008 81.7612 59.364C82.7328 58.6271 83.4312 57.5939 83.7484 56.4245ZM6.0625 50.0775L32.2508 34.144L6.0625 18.6065V50.0775Z" fill="#2282C7"/>
</svg>
