<svg width="22" height="20" viewBox="0 0 22 20" fill="none" xmlns="http://www.w3.org/2000/svg">
<path d="M7.00888 15H6.99988M2.99988 15C2.99988 17.21 4.75288 19 6.91588 19C8.68988 19 10.1879 17.795 10.6699 16.143H14.8599C15.2819 16.143 15.3079 16.169 15.3079 16.6V17.857C15.3079 18.396 15.3079 18.665 15.4709 18.833C15.6349 19 15.8989 19 16.4259 19H17.1869C17.6269 19 17.8459 19 18.0009 18.87C18.1549 18.741 18.1979 18.521 18.2849 18.081L18.5919 16.511C18.6609 16.159 18.6799 16.143 19.0309 16.143H19.7829C20.3099 16.143 20.5739 16.143 20.7379 15.975C21.1049 15.601 21.0699 13.792 20.7379 13.453C20.5739 13.286 20.3099 13.286 19.7829 13.286H10.4549C9.82688 11.934 8.47788 11 6.91588 11C4.75288 11 2.99988 12.79 2.99988 15Z" stroke="white" stroke-width="1.5" stroke-linecap="round" stroke-linejoin="round"/>
<path d="M17.9999 10.5V7C17.9999 4.172 17.9999 2.757 17.1209 1.879C16.2429 1 14.8279 1 11.9999 1H6.99988C4.17188 1 2.75688 1 1.87888 1.879C0.999878 2.757 0.999878 4.172 0.999878 7V12" stroke="white" stroke-width="1.5" stroke-linecap="round" stroke-linejoin="round"/>
</svg>
