<svg width="70" height="80" viewBox="0 0 70 80" fill="none" xmlns="http://www.w3.org/2000/svg">
<path d="M65.8438 34.25C65.8438 55.8125 35 75.9375 35 75.9375C35 75.9375 4.15625 55.8125 4.15625 34.25C4.15625 26.2438 7.40585 18.5655 13.1902 12.9042C18.9745 7.24296 26.8197 4.0625 35 4.0625C43.1803 4.0625 51.0255 7.24296 56.8098 12.9042C62.5942 18.5655 65.8438 26.2438 65.8438 34.25V34.25Z" stroke="#2282C7" stroke-width="6.5" stroke-linecap="round" stroke-linejoin="round"/>
<path d="M35 41.4375C39.0558 41.4375 42.3438 38.2195 42.3438 34.25C42.3438 30.2805 39.0558 27.0625 35 27.0625C30.9442 27.0625 27.6562 30.2805 27.6562 34.25C27.6562 38.2195 30.9442 41.4375 35 41.4375Z" fill="#2282C7" stroke="#2282C7" stroke-width="6.5" stroke-linecap="round" stroke-linejoin="round"/>
</svg>
