<svg width="20" height="24" viewBox="0 0 20 24" fill="none" xmlns="http://www.w3.org/2000/svg">
<path d="M10 0L20 3.5V11.56C20 15.687 17.467 18.572 15.104 20.363C13.6786 21.4345 12.1143 22.3074 10.454 22.958L10.367 22.991L10.342 23L10.335 23.002L10.332 23.003C10.331 23.003 10.33 23.003 10 22.06L9.669 23.004L9.665 23.002L9.658 23L9.633 22.99L9.546 22.958C9.07436 22.7756 8.61062 22.5734 8.156 22.352C7.00838 21.7945 5.91674 21.1285 4.896 20.363C2.534 18.572 0 15.687 0 11.56V3.5L10 0ZM10 22.06L9.669 23.004L10 23.12L10.331 23.004L10 22.06ZM10 20.988L10.009 20.984C11.3927 20.4121 12.6986 19.6679 13.896 18.769C16.034 17.15 18 14.783 18 11.56V4.92L10 2.12L2 4.92V11.56C2 14.783 3.966 17.148 6.104 18.77C7.304 19.6706 8.61305 20.4158 10 20.988ZM16.072 7.903L9.001 14.974L4.758 10.732L6.173 9.317L9 12.146L14.657 6.489L16.072 7.903Z" fill="white"/>
</svg>
