<svg width="24" height="24" viewBox="0 0 24 24" fill="none" xmlns="http://www.w3.org/2000/svg">
<path d="M9.51789 22C9.02789 20.4023 8.28872 19.2112 7.30039 18.4265C5.81789 17.25 3.46239 17.9815 2.59239 16.7675C1.72239 15.5535 3.20189 13.3215 3.72089 12.0045C4.23989 10.6875 1.73089 10.222 2.02389 9.848C2.21889 9.59867 3.48706 8.87933 5.82839 7.69C6.49339 3.89667 8.95022 2 13.1989 2C19.5719 2 21.9999 7.403 21.9999 10.84C21.9999 14.276 19.0599 17.978 14.8719 18.7765C14.4976 19.3218 15.0376 20.3963 16.4919 22" stroke="white" stroke-width="2.3335" stroke-linecap="round" stroke-linejoin="round"/>
<path d="M9.74986 7.24994C9.42286 8.51694 9.52003 9.40677 10.0414 9.91944C10.5624 10.4318 11.4504 10.7668 12.7054 10.9244C12.4204 12.5588 12.7675 13.3254 13.7469 13.2244C14.7259 13.1238 15.3142 12.7171 15.5119 12.0044C17.0419 12.4344 17.8712 12.0744 17.9999 10.9244C18.1924 9.19944 17.2624 7.82394 16.8809 7.82394C16.4994 7.82394 15.5119 7.77744 15.5119 7.24994C15.5119 6.72244 14.3579 6.42494 13.3164 6.42494C12.2749 6.42494 12.9014 5.72244 11.4714 5.99994C10.518 6.18494 9.94419 6.6016 9.74986 7.24994Z" stroke="white" stroke-width="2" stroke-linejoin="round"/>
<path d="M15.2498 12.75C14.7413 13.0655 14.0438 13.59 13.7498 14C13.0153 15.025 12.4198 15.649 12.2898 16.304" stroke="white" stroke-width="2" stroke-linecap="round"/>
</svg>
